<?xml version="1.0" standalone="no"?>
<!DOCTYPE svg PUBLIC "-//W3C//DTD SVG 20010904//EN"
 "http://www.w3.org/TR/2001/REC-SVG-20010904/DTD/svg10.dtd">
<svg version="1.0" xmlns="http://www.w3.org/2000/svg"
 width="1021.000000pt" height="1302.000000pt" viewBox="0 0 1021.000000 1302.000000"
 preserveAspectRatio="xMidYMid meet">

<g transform="translate(0.000000,1302.000000) scale(0.100000,-0.100000)"
fill="#000000" stroke="none">
<path d="M4300 11697 c-25 -6 -52 -18 -60 -27 -8 -9 -31 -22 -50 -28 -19 -7
-57 -23 -84 -37 -27 -14 -61 -25 -75 -25 -14 0 -43 -6 -66 -14 -22 -8 -66 -20
-98 -27 -62 -13 -76 -24 -58 -42 22 -22 12 -37 -21 -35 -18 1 -39 6 -46 11 -9
7 -17 6 -25 -2 -9 -9 -5 -17 16 -34 l28 -22 -47 -1 c-39 0 -51 -5 -68 -27 -16
-19 -33 -28 -61 -31 -77 -7 -95 -16 -95 -45 0 -15 4 -31 10 -37 15 -15 -30
-100 -94 -177 -31 -38 -56 -77 -56 -88 0 -11 -16 -29 -39 -43 -21 -14 -56 -46
-77 -73 -22 -26 -44 -54 -51 -61 -14 -15 -27 -52 -20 -58 3 -3 21 9 40 25 19
17 37 31 41 31 19 0 -64 -97 -201 -237 -85 -87 -166 -176 -180 -197 -14 -22
-45 -61 -69 -86 -43 -47 -44 -49 -49 -128 -2 -44 -10 -102 -16 -129 -16 -65
-94 -243 -142 -323 -22 -36 -48 -79 -58 -96 -11 -17 -28 -73 -39 -125 -48
-220 -51 -250 -21 -242 31 8 37 -107 11 -232 -22 -108 -32 -139 -27 -87 4 38
-10 54 -17 20 -3 -13 -7 -57 -10 -98 -2 -41 -7 -89 -11 -106 -8 -36 7 -53 30
-34 24 20 31 -17 13 -69 -29 -82 -39 -157 -33 -236 3 -43 8 -82 12 -88 3 -5 8
-85 10 -176 3 -139 7 -173 23 -208 11 -24 20 -45 20 -48 0 -3 -20 -14 -44 -25
-25 -10 -49 -27 -55 -38 -24 -45 -32 -119 -26 -230 l7 -112 48 -21 c88 -38
115 -90 126 -244 7 -100 1 -145 -20 -145 -7 0 -20 -8 -29 -18 -14 -15 -16 -33
-11 -108 8 -125 33 -208 109 -366 36 -76 70 -157 75 -180 5 -24 13 -61 19 -83
14 -52 14 -311 1 -336 -15 -28 -17 -289 -2 -315 7 -14 13 -93 16 -213 2 -105
8 -197 13 -204 6 -6 13 -23 17 -37 8 -30 28 -217 30 -280 l1 -45 -115 -17
c-63 -10 -207 -31 -320 -48 -350 -51 -509 -78 -527 -90 -13 -7 -14 -10 -3 -8
39 6 100 -43 67 -55 -6 -2 -8 -8 -4 -13 4 -4 16 -3 26 3 14 9 27 8 55 -1 20
-7 51 -11 69 -9 18 2 41 4 52 4 10 0 25 5 32 10 6 6 25 9 40 8 15 -2 34 1 42
6 9 5 16 5 18 -2 2 -6 12 -9 23 -6 16 4 18 0 13 -36 -4 -29 -2 -41 7 -41 9 0
11 9 7 30 -7 35 4 39 32 11 19 -19 19 -19 25 4 5 21 8 22 41 12 19 -6 43 -18
52 -27 18 -16 73 -16 73 1 0 5 6 9 14 9 8 0 18 5 21 10 4 6 1 9 -7 8 -7 -2
-13 6 -13 17 -1 11 -4 25 -8 32 -10 15 69 33 99 22 15 -5 28 -2 40 7 11 9 14
13 8 10 -7 -3 -18 2 -25 11 -10 12 -10 14 -1 9 6 -4 12 -2 12 3 0 6 15 12 33
12 17 1 24 3 15 6 -27 7 -21 23 8 23 17 0 28 6 31 19 6 24 52 37 68 19 7 -7
20 -38 30 -68 17 -54 52 -137 83 -195 25 -48 29 -57 56 -117 14 -31 26 -62 26
-68 0 -6 11 -28 25 -50 14 -22 25 -43 25 -47 0 -5 11 -21 25 -37 14 -16 25
-34 25 -40 0 -5 15 -26 33 -46 31 -32 83 -133 87 -170 7 -48 0 -59 -56 -84
-89 -41 -243 -177 -419 -371 -124 -136 -167 -173 -315 -271 -58 -39 -136 -92
-173 -119 -38 -28 -83 -59 -102 -70 -46 -28 -268 -229 -464 -420 -135 -132
-169 -171 -194 -223 -16 -34 -43 -74 -60 -88 -27 -23 -36 -25 -81 -19 -28 4
-82 15 -121 25 -38 11 -117 24 -175 30 -144 14 -185 6 -580 -124 -218 -72
-337 -123 -410 -177 l-30 -23 0 -1043 0 -1043 2135 0 c1174 0 2135 2 2135 5 0
7 -78 203 -97 244 -31 69 -73 174 -70 178 10 9 187 -385 187 -416 0 -17 2984
-15 2997 2 5 6 17 30 25 52 9 22 43 96 76 165 33 69 79 170 102 225 23 55 60
137 82 183 22 46 41 89 42 97 1 7 7 19 12 26 19 24 25 51 12 47 -7 -3 -15 -13
-17 -23 -1 -10 -11 -27 -22 -38 -10 -11 -16 -24 -13 -29 3 -5 -3 -17 -15 -27
-11 -10 -28 -31 -37 -47 l-16 -29 6 35 c3 19 2 29 -2 23 -4 -7 -19 -14 -32
-15 -22 -3 -24 0 -21 35 2 28 -1 37 -13 37 -8 0 -18 -5 -21 -10 -15 -24 -321
-163 -463 -209 -83 -28 -158 -51 -165 -50 -18 1 64 35 178 75 196 68 516 266
695 429 118 109 146 148 180 255 24 77 63 172 121 295 38 82 37 80 45 72 9 -8
-12 -66 -71 -202 -29 -66 -68 -167 -86 -225 -24 -75 -105 -249 -289 -615 -140
-280 -258 -518 -262 -527 -7 -17 12 -18 325 -18 l332 0 75 56 c110 82 270 187
276 182 3 -3 -39 -37 -93 -76 -54 -38 -125 -90 -157 -116 l-59 -46 1096 0
1097 0 -2 1212 -3 1212 -25 13 c-91 45 -170 78 -270 114 -63 22 -140 51 -170
64 -76 32 -315 115 -332 115 -29 0 -204 62 -263 93 -42 23 -98 70 -190 163
-71 72 -166 162 -210 200 -124 107 -195 183 -260 279 -55 82 -155 191 -251
274 -21 18 -61 54 -89 78 -56 51 -245 179 -346 236 -71 39 -202 88 -285 107
-30 7 -61 21 -74 35 -28 30 -24 62 20 177 17 44 30 82 28 84 -8 8 -28 -15 -58
-69 -26 -47 -34 -73 -37 -130 -3 -40 -13 -93 -24 -120 -38 -92 -67 -514 -41
-589 17 -48 118 -141 265 -246 193 -138 282 -245 337 -408 28 -85 34 -117 38
-224 11 -294 -55 -486 -284 -833 -138 -206 -409 -444 -658 -577 -473 -251
-943 -301 -1541 -163 -154 35 -470 125 -595 168 -171 60 -419 185 -740 373
-180 105 -433 294 -544 406 -67 67 -140 168 -135 185 4 12 28 -10 118 -109 33
-36 63 -61 67 -57 5 4 2 13 -6 18 -13 9 -13 10 0 6 8 -2 16 -14 18 -26 2 -12
11 -25 20 -28 9 -4 23 -14 29 -24 8 -10 21 -15 32 -12 15 4 22 -1 27 -21 3
-14 10 -26 14 -26 4 0 18 -11 31 -25 26 -26 39 -31 39 -14 0 5 -4 8 -8 5 -5
-3 -9 1 -9 9 0 8 4 15 9 15 4 0 8 -4 8 -10 0 -5 6 -10 13 -10 15 0 40 -38 32
-50 -3 -5 9 -17 27 -26 18 -9 39 -25 46 -35 7 -11 18 -19 23 -19 6 0 17 -7 26
-15 8 -8 19 -13 24 -10 5 4 9 0 9 -9 0 -15 69 -63 84 -58 4 1 14 -5 21 -14 14
-20 45 -13 45 11 0 8 6 15 13 15 25 0 26 -12 4 -30 l-22 -18 28 -11 c38 -15
38 -15 31 14 -6 25 -5 25 42 21 27 -2 55 1 61 6 8 7 22 7 40 1 20 -7 59 -4
133 8 86 15 150 18 355 16 243 -2 252 -1 310 22 65 26 105 69 119 126 4 17 21
57 36 91 24 50 55 85 174 197 79 76 178 179 219 230 42 50 102 115 134 144 32
28 76 68 98 87 22 20 63 51 90 69 28 19 97 65 153 102 119 79 219 167 263 232
46 67 99 163 99 180 0 9 63 77 139 152 159 155 277 294 347 408 26 43 67 103
90 133 36 47 74 129 74 160 0 6 -9 10 -19 10 -13 0 -30 -19 -51 -56 -30 -53
-64 -90 -196 -215 -37 -35 -71 -81 -93 -122 -34 -68 -71 -119 -71 -99 0 6 12
46 26 88 24 73 26 104 5 104 -5 0 -20 -17 -32 -37 l-23 -37 -7 27 c-9 33 6
222 21 264 7 18 10 38 7 45 -6 18 -41 -55 -66 -138 -29 -95 -50 -126 -118
-172 -32 -22 -76 -56 -98 -76 -22 -19 -41 -34 -42 -32 -2 1 1 17 6 34 5 18 7
32 3 32 -4 -1 -61 -43 -127 -96 -107 -84 -313 -231 -366 -260 -11 -6 -29 -21
-40 -33 -25 -26 -35 -26 -49 -1 -16 31 -30 24 -30 -15 0 -39 -21 -55 -49 -38
-9 6 -30 8 -47 6 -48 -7 -49 13 -5 64 73 82 48 88 -39 8 -56 -51 -61 -54 -90
-44 -16 6 -30 15 -30 20 0 13 -24 11 -38 -3 -15 -15 -111 -11 -131 5 -8 7 -12
7 -9 2 4 -6 0 -19 -8 -30 -13 -17 -16 -18 -24 -5 -6 8 -15 32 -21 53 -15 54
-35 43 -30 -18 4 -55 -11 -54 -34 2 -34 82 -102 104 -193 63 -23 -10 -59 -22
-80 -26 -38 -7 -73 -24 -106 -56 -29 -26 -38 -22 -34 15 l3 32 -55 5 c-48 5
-52 6 -30 15 25 9 24 9 -10 15 -47 8 -56 4 -81 -36 -11 -19 -25 -32 -30 -28
-5 3 -7 10 -4 15 4 5 3 14 0 20 -8 12 -45 -17 -45 -35 0 -6 -9 -22 -20 -36
l-19 -25 6 53 c7 63 -7 68 -32 11 -19 -41 -69 -86 -79 -70 -3 5 3 19 13 32 51
67 50 111 -3 61 -34 -32 -75 -56 -82 -49 -3 3 4 20 15 38 33 54 28 76 -18 84
-30 5 -50 1 -87 -18 -72 -36 -112 -43 -121 -20 -8 21 -24 37 -40 40 -22 5
-155 138 -188 188 -18 28 -51 69 -73 91 -23 23 -38 44 -35 47 3 4 -6 11 -21
17 -15 5 -24 15 -21 21 9 13 -34 119 -49 120 -6 1 -18 2 -26 3 -8 2 -27 3 -41
4 -16 1 -31 11 -39 26 -7 14 -18 23 -24 20 -6 -2 -19 10 -28 27 -10 16 -22 28
-28 24 -6 -3 -7 1 -4 9 3 9 3 24 0 33 -6 14 -9 15 -16 4 -6 -10 -11 -3 -19 25
-6 21 -11 45 -11 52 0 6 -4 12 -10 12 -13 0 -44 69 -44 100 -1 14 -6 25 -13
25 -17 0 -27 13 -40 53 l-12 37 5 -43 c3 -24 17 -62 30 -85 13 -23 24 -53 24
-67 0 -29 21 -92 37 -111 9 -12 28 -63 38 -102 10 -41 19 -57 31 -57 8 0 14
-4 14 -9 0 -6 16 -27 35 -48 38 -42 39 -54 1 -30 -63 42 -137 196 -201 420 -9
31 -21 57 -26 57 -5 0 -9 8 -9 17 0 9 -6 24 -13 32 -12 15 -35 71 -102 256
-14 39 -30 108 -36 155 -6 47 -22 123 -36 170 -27 92 -122 320 -181 433 -35
70 -36 75 -37 182 0 107 1 113 45 220 39 99 44 120 48 209 4 91 -11 206 -27
206 -3 0 -12 15 -20 33 -8 17 -24 46 -37 64 -13 17 -24 35 -24 40 0 5 -8 16
-17 24 -25 22 -53 58 -53 67 0 4 -9 18 -20 32 -23 30 -25 44 -6 37 20 -8 26
27 10 58 l-14 27 55 -4 c30 -1 55 -3 55 -2 0 1 -25 18 -55 37 -130 87 -218
265 -266 536 -25 140 -32 341 -15 414 58 243 259 340 793 382 194 16 225 16
394 1 229 -19 332 -37 479 -81 191 -58 296 -120 336 -198 14 -25 16 -50 11
-132 -8 -140 -83 -387 -175 -570 -50 -102 -135 -228 -188 -281 -76 -76 -47
-70 85 18 40 27 76 47 79 43 11 -11 -35 -60 -114 -123 -43 -34 -106 -87 -139
-115 -33 -29 -81 -67 -106 -84 -50 -35 -78 -63 -61 -63 6 0 14 5 17 10 3 6 16
10 27 10 48 0 190 94 288 190 102 100 149 165 270 370 92 157 130 240 165 360
37 128 60 174 107 214 96 83 242 67 317 -34 34 -47 99 -181 132 -278 38 -105
108 -247 185 -373 32 -52 86 -150 121 -219 37 -75 63 -116 63 -102 0 37 -45
163 -85 236 -57 103 -43 114 43 32 40 -38 72 -65 72 -59 0 6 -7 17 -16 24 -24
20 -87 116 -124 189 -137 271 -208 573 -169 715 13 48 79 114 146 149 153 77
455 147 720 166 161 12 509 -7 664 -35 108 -21 332 -81 368 -99 45 -24 130
-105 156 -151 60 -101 71 -251 35 -455 -19 -101 -37 -163 -113 -385 -29 -87
-69 -139 -153 -201 -41 -30 -74 -56 -74 -58 0 -7 81 24 131 49 60 31 159 152
220 267 54 105 159 381 169 444 10 68 28 99 93 164 l54 55 1 151 c1 83 6 162
11 176 5 14 13 104 16 199 5 127 13 204 31 284 13 60 24 122 24 136 0 15 7 44
17 65 9 22 20 86 24 144 7 88 5 116 -12 185 -14 53 -23 135 -27 245 -7 159 -9
167 -40 230 -18 36 -43 80 -56 98 -26 35 -40 71 -76 190 -12 39 -36 94 -55
121 -18 28 -48 76 -66 108 -18 32 -43 72 -55 88 -12 17 -41 70 -64 119 -23 48
-56 105 -74 125 -17 20 -37 47 -44 61 -43 87 -169 268 -191 275 -30 9 -71 62
-102 131 -30 67 -75 110 -148 146 -74 36 -203 128 -265 191 -76 75 -153 127
-189 127 -37 0 -127 46 -246 124 -53 34 -122 77 -153 95 -32 18 -60 37 -64 42
-8 13 -250 130 -294 141 -19 5 -77 18 -128 29 -95 19 -186 53 -258 95 -22 13
-53 24 -68 24 -15 0 -41 7 -57 16 -45 23 -185 21 -439 -6 -138 -15 -190 -9
-375 44 -97 28 -117 29 -185 13z m788 -118 c13 -5 48 -9 78 -9 30 0 83 -9 117
-21 67 -22 177 -85 177 -100 0 -12 2 -12 -66 11 -64 22 -187 39 -329 46 l-90
4 140 -25 c142 -25 300 -77 417 -137 106 -53 60 -49 -105 11 -132 48 -327 91
-414 91 -87 0 -368 41 -419 61 -84 32 -81 30 -59 39 11 4 49 3 85 -2 52 -7 75
-5 115 8 102 34 159 43 245 37 46 -3 95 -9 108 -14z m-552 -93 c43 -14 149
-39 234 -56 153 -30 223 -56 335 -123 22 -13 79 -34 128 -47 48 -13 87 -27 87
-33 0 -6 -33 -7 -87 -3 -80 6 -98 11 -199 61 -60 30 -117 55 -126 55 -9 0 -18
-9 -21 -20 -6 -24 -30 -25 -100 -5 -67 19 -197 34 -197 23 0 -18 73 -39 163
-48 79 -7 177 -34 166 -44 -10 -9 -203 16 -269 35 -55 15 -125 23 -260 29
-102 5 -212 14 -245 20 -69 11 -203 15 -212 6 -11 -11 1 -15 77 -26 41 -6 104
-20 140 -30 96 -29 172 -40 279 -41 114 -1 81 -13 -65 -24 -106 -8 -133 -18
-91 -34 17 -7 127 -11 275 -12 153 0 276 -5 322 -13 67 -12 47 -12 -192 -8
-288 6 -330 -2 -185 -32 156 -33 144 -41 -56 -38 -186 4 -307 -9 -422 -45 -73
-23 -315 -140 -315 -152 0 -6 12 -11 28 -12 24 -1 -175 -71 -263 -93 l-30 -8
24 26 c14 14 29 26 34 26 6 0 49 38 96 84 116 113 261 231 316 258 25 12 45
25 45 29 0 5 -26 10 -57 11 l-58 4 43 18 c23 11 42 22 42 26 0 13 -23 27 -55
34 -51 11 -85 28 -85 41 0 7 -9 15 -20 18 -27 7 -16 35 19 44 42 12 328 8 416
-5 44 -7 143 -15 220 -19 129 -6 139 -5 126 10 -7 9 -29 19 -50 22 -146 23
-167 29 -135 35 17 4 69 1 115 -7 128 -22 166 -25 149 -15 -23 15 -193 49
-307 63 -57 7 -103 16 -103 21 0 37 199 34 326 -6z m-651 4 c-3 -5 -15 -10
-25 -10 -10 0 -22 5 -25 10 -4 6 7 10 25 10 18 0 29 -4 25 -10z m334 -29 c40
-11 75 -22 79 -26 8 -9 -124 1 -226 17 -47 7 -69 14 -60 19 23 15 132 10 207
-10z m1471 -151 c8 -5 11 -12 8 -15 -4 -4 -17 0 -30 9 -24 17 -5 23 22 6z
m-105 -253 c115 -31 102 -49 -25 -35 -72 9 -98 18 -103 39 -7 25 23 24 128 -4z
m-824 -2 c63 -8 130 -20 149 -27 22 -7 127 -12 285 -14 256 -2 441 -19 705
-65 239 -41 266 -50 472 -151 161 -79 192 -98 303 -194 33 -28 94 -75 135
-105 171 -122 325 -299 414 -476 25 -51 50 -92 54 -92 32 5 49 -5 65 -39 9
-20 24 -48 33 -62 l15 -25 -4 25 c-3 14 -12 49 -21 78 -31 102 -44 152 -40
152 21 0 141 -256 175 -373 9 -32 100 -180 106 -173 2 2 -7 30 -20 62 -34 81
-67 183 -67 208 0 20 0 20 19 1 10 -11 36 -54 59 -95 55 -105 92 -158 92 -134
0 10 40 -62 90 -161 109 -220 127 -297 114 -480 -4 -60 -8 -186 -9 -280 0
-188 -14 -395 -26 -395 -13 0 -21 137 -14 252 5 86 3 130 -9 183 -9 39 -22
124 -30 190 -15 123 -49 255 -66 255 -12 0 -12 -19 0 -85 5 -27 17 -104 25
-170 9 -66 23 -148 30 -183 18 -77 20 -175 4 -170 -7 2 -18 29 -25 58 -8 30
-18 63 -24 72 -5 10 -10 28 -10 40 0 12 -3 19 -6 15 -3 -3 1 -65 10 -139 25
-218 28 -265 21 -288 -12 -38 -23 -4 -34 106 -6 54 -26 157 -46 227 -19 71
-40 158 -45 194 -6 36 -17 74 -24 85 -11 16 -13 3 -11 -85 1 -57 5 -108 8
-114 10 -16 35 -183 27 -178 -10 6 -80 197 -80 218 0 9 -5 17 -11 17 -15 0 -6
-77 20 -192 22 -96 61 -409 61 -493 0 -63 12 -95 38 -95 28 -1 86 -36 73 -44
-6 -4 -15 -4 -21 -1 -5 3 -112 13 -237 20 -126 8 -250 19 -278 25 -60 12 -687
34 -797 28 -43 -3 -78 -2 -78 2 0 3 33 14 73 23 51 12 120 18 237 18 222 1
251 12 79 28 -102 10 -164 11 -255 3 -120 -10 -198 -5 -196 13 1 6 10 11 20
13 14 2 18 9 14 28 -2 13 -7 24 -11 25 -3 0 -17 3 -31 5 -14 2 -79 7 -146 10
-161 9 -239 -13 -329 -90 -17 -14 -34 -26 -40 -26 -5 0 -21 -9 -34 -19 -21
-16 -26 -17 -65 -3 -49 18 -76 11 -76 -18 0 -12 -7 -20 -17 -21 -11 0 -13 -3
-5 -6 20 -8 14 -20 -24 -42 -20 -12 -32 -26 -28 -32 10 -17 131 -2 247 31 56
16 103 28 105 25 10 -10 -86 -41 -267 -86 -252 -63 -314 -71 -487 -58 -77 5
-209 14 -294 19 -85 4 -191 16 -235 25 -89 17 -249 64 -243 70 2 3 53 -2 114
-10 169 -23 224 -28 224 -22 0 4 -33 16 -72 27 -193 56 -207 62 -233 99 -55
80 -271 141 -404 115 -17 -4 -28 -10 -26 -14 7 -12 -47 -37 -97 -46 l-43 -7
30 -9 c17 -4 44 -10 60 -13 73 -12 198 -45 193 -51 -3 -2 -70 3 -149 13 -161
19 -532 23 -719 9 -67 -5 -188 -25 -289 -48 -96 -21 -189 -38 -205 -36 -31 3
-31 3 16 25 46 21 47 22 38 55 -12 38 11 278 37 403 24 111 23 268 -2 380 -28
128 -27 351 3 490 12 55 29 138 38 185 13 74 55 191 184 512 19 49 108 193
115 187 2 -2 -23 -57 -55 -121 -33 -65 -68 -150 -80 -190 -11 -40 -38 -120
-60 -178 -50 -135 -53 -147 -41 -155 16 -9 65 77 118 205 112 270 229 476 345
601 18 20 93 102 166 182 155 171 182 187 387 241 194 50 327 94 439 143 162
72 210 83 370 83 160 0 170 11 32 37 -49 9 -97 24 -109 34 -27 22 -28 22 114
4z m-521 -90 c0 -5 -54 -19 -107 -29 -18 -3 -33 -2 -33 3 0 4 28 13 63 18 34
6 65 11 70 12 4 0 7 -1 7 -4z m-261 -35 c-15 -9 -205 -61 -218 -59 -8 0 27 15
109 45 65 23 142 33 109 14z m201 -38 c0 -19 -87 -50 -320 -114 -181 -49 -300
-72 -300 -57 0 10 120 59 282 116 89 31 158 49 208 53 115 11 130 11 130 2z
m-1129 -530 c-34 -44 -78 -83 -52 -47 19 26 74 85 79 85 2 0 -10 -17 -27 -38z
m4249 -408 c0 -8 -5 -12 -10 -9 -6 4 -8 11 -5 16 9 14 15 11 15 -7z m-4608
-572 c-12 -37 -26 -83 -31 -102 -9 -32 -10 -31 -5 15 7 60 45 185 52 167 2 -8
-5 -44 -16 -80z m2928 -1371 c0 -5 -6 -11 -13 -14 -8 -3 -14 1 -14 9 0 8 6 14
14 14 7 0 13 -4 13 -9z m-1447 -32 c31 -7 57 -16 57 -21 0 -5 -8 -7 -17 -4
-10 3 -42 10 -72 16 -30 6 -57 12 -59 15 -9 8 32 6 91 -6z m-1548 -274 c0 -15
-8 -21 -34 -23 -50 -5 -101 7 -101 23 0 18 23 23 85 22 43 -2 50 -5 50 -22z
m5159 12 c16 -12 16 -14 2 -26 -27 -22 -92 -26 -123 -6 -25 17 -26 18 -8 31
24 18 106 18 129 1z m-5154 -2907 c0 -5 -5 -10 -11 -10 -5 0 -7 5 -4 10 3 6 8
10 11 10 2 0 4 -4 4 -10z m-410 -100 c0 -5 -2 -10 -4 -10 -3 0 -8 5 -11 10 -3
6 -1 10 4 10 6 0 11 -4 11 -10z m77 -32 c-3 -8 -6 -5 -6 6 -1 11 2 17 5 13 3
-3 4 -12 1 -19z m1065 -905 c57 -142 74 -310 44 -435 -7 -32 -10 -58 -6 -58 4
0 11 7 14 16 11 29 17 8 27 -98 13 -133 18 -153 96 -338 82 -196 202 -435 290
-582 106 -175 144 -246 134 -252 -10 -7 -41 20 -41 35 0 6 -9 7 -21 4 -18 -6
-21 -4 -17 12 4 17 1 19 -20 15 -20 -4 -24 -2 -19 11 6 15 -25 34 -46 29 -5
-1 -6 2 -2 8 3 5 -12 29 -34 52 -23 23 -41 45 -41 48 0 4 -11 19 -24 34 -72
85 -173 296 -220 462 -38 134 -75 327 -84 434 -6 84 -9 95 -25 92 -16 -3 -17
2 -10 50 4 29 8 118 7 198 -1 149 -3 161 -69 365 -16 49 42 -39 67 -102z m468
-35 c0 -6 -7 -7 -16 -4 -9 3 -18 6 -20 6 -3 0 -3 4 1 10 7 11 35 2 35 -12z
m35 -28 c3 -5 -1 -10 -10 -10 -9 0 -13 5 -10 10 3 6 8 10 10 10 2 0 7 -4 10
-10z m1020 -450 c-3 -5 -11 -10 -16 -10 -6 0 -7 5 -4 10 3 6 11 10 16 10 6 0
7 -4 4 -10z m-115 -29 c-11 -40 -29 -71 -40 -71 -20 0 -4 46 28 83 20 23 22
22 12 -12z m818 -13 c4 -32 -22 -56 -42 -39 -12 10 -12 16 2 41 20 35 36 34
40 -2z m367 -314 c-46 -41 -204 -120 -255 -129 -39 -6 -39 -6 56 36 22 10 83
43 135 73 51 31 96 56 99 56 3 -1 -13 -17 -35 -36z m2050 -80 c16 -54 28 -118
30 -172 l4 -87 -14 75 c-7 41 -23 111 -34 155 -36 139 -26 159 14 29z m-4123
-816 c-7 -7 -12 -8 -12 -2 0 14 12 26 19 19 2 -3 -1 -11 -7 -17z m-17 -48 c-3
-5 -12 -10 -18 -10 -7 0 -6 4 3 10 19 12 23 12 15 0z m-4 -1038 c17 -34 30
-64 28 -67 -3 -2 -18 22 -34 53 -17 31 -32 59 -35 62 -9 9 -30 50 -30 57 1 15
40 -43 71 -105z m3659 18 c0 -5 -5 -10 -11 -10 -5 0 -7 5 -4 10 3 6 8 10 11
10 2 0 4 -4 4 -10z m-74 -57 c-10 -10 -19 5 -10 18 6 11 8 11 12 0 2 -7 1 -15
-2 -18z m-2590 -293 c32 -11 63 -26 69 -32 7 -8 5 -9 -10 -3 -11 4 -45 14 -75
22 -30 8 -59 19 -64 24 -16 15 16 11 80 -11z m1917 -11 c-6 -6 -29 -15 -50
-20 -21 -4 -67 -15 -103 -23 -57 -13 -82 -14 -69 -2 6 4 200 54 219 55 10 1
11 -2 3 -10z m-1746 -55 c-3 -3 -12 -4 -19 -1 -8 3 -5 6 6 6 11 1 17 -2 13 -5z
m1468 -4 c-3 -5 -25 -9 -48 -9 -40 1 -40 2 -12 9 44 11 67 11 60 0z m-1314
-30 c128 -27 166 -42 89 -35 -71 6 -199 40 -214 56 -8 9 -7 11 5 6 9 -3 63
-15 120 -27z m1209 21 c0 -16 -155 -34 -330 -38 -252 -5 -202 13 75 27 126 6
232 13 234 16 8 7 21 4 21 -5z m320 -75 c0 -10 -103 -36 -137 -35 -31 1 -22 5
42 19 94 21 95 21 95 16z m-1153 -32 c-3 -3 -12 -4 -19 -1 -8 3 -5 6 6 6 11 1
17 -2 13 -5z m61 -11 c-10 -2 -26 -2 -35 0 -10 3 -2 5 17 5 19 0 27 -2 18 -5z
m902 3 c0 -3 -4 -8 -10 -11 -5 -3 -10 -1 -10 4 0 6 5 11 10 11 6 0 10 -2 10
-4z m-63 -12 c-3 -3 -12 -4 -19 -1 -8 3 -5 6 6 6 11 1 17 -2 13 -5z m-689 -11
c-10 -2 -26 -2 -35 0 -10 3 -2 5 17 5 19 0 27 -2 18 -5z m600 0 c-10 -2 -26
-2 -35 0 -10 3 -2 5 17 5 19 0 27 -2 18 -5z m-143 -20 c-76 -16 -308 -14 -337
3 -10 6 61 9 195 10 209 1 211 1 142 -13z"/>
<path d="M3790 11330 c0 -5 5 -10 10 -10 6 0 10 5 10 10 0 6 -4 10 -10 10 -5
0 -10 -4 -10 -10z"/>
<path d="M5670 8125 c-11 -13 -10 -14 4 -9 9 3 16 10 16 15 0 13 -6 11 -20 -6z"/>
<path d="M3154 8085 c-17 -8 -36 -20 -43 -29 -11 -13 -9 -14 20 -6 18 6 42 19
53 30 23 23 14 24 -30 5z"/>
<path d="M5595 8080 c-3 -5 3 -10 14 -10 12 0 21 5 21 10 0 6 -6 10 -14 10 -8
0 -18 -4 -21 -10z"/>
<path d="M6863 8044 c3 -4 57 -10 119 -15 62 -4 139 -11 171 -15 36 -4 57 -3
57 3 0 6 -40 15 -88 22 -94 12 -270 15 -259 5z"/>
<path d="M3576 11395 c-6 -16 3 -19 28 -9 22 8 20 24 -3 24 -10 0 -21 -7 -25
-15z"/>
<path d="M3550 7839 c-36 -4 -122 -12 -191 -18 -157 -13 -377 -67 -453 -110
-65 -37 -121 -97 -150 -160 -18 -39 -21 -63 -20 -156 3 -354 163 -707 366
-805 55 -27 139 -51 176 -50 9 1 -14 11 -53 24 -78 26 -156 71 -176 101 -9 14
-13 98 -15 305 -2 157 -7 368 -10 470 -4 102 -6 200 -6 219 1 38 26 71 55 71
17 0 18 -4 11 -32 -10 -39 -10 -313 0 -354 7 -25 9 -26 17 -11 16 28 32 20 57
-27 18 -33 36 -50 80 -72 64 -33 159 -43 216 -24 39 13 44 21 21 40 -47 39 3
37 164 -4 57 -15 105 -25 108 -22 11 11 -12 28 -80 59 -118 55 -120 69 -27
155 l58 54 0 -54 c-1 -94 68 -198 145 -219 72 -19 183 6 236 54 34 31 61 95
61 145 0 23 3 42 7 42 14 0 84 -54 94 -72 11 -20 -10 -46 -81 -99 -49 -38 -31
-46 43 -21 42 15 85 22 134 22 49 0 90 7 125 20 l52 20 22 -21 c20 -18 22 -19
28 -3 12 32 21 2 18 -64 -3 -67 -3 -67 13 -37 42 77 59 158 60 272 l0 112 -39
39 c-21 22 -60 52 -87 67 -64 35 -229 90 -327 109 -201 40 -488 56 -652 35z
m209 -129 c-14 -8 -102 -33 -206 -57 -43 -10 -23 6 35 27 54 21 123 37 167 39
17 0 18 -1 4 -9z m4 -104 c-60 -19 -140 -30 -128 -18 15 16 75 30 125 30 l45
1 -42 -13z m233 -1 c71 -9 123 -27 171 -59 45 -31 41 -33 -14 -6 -73 35 -184
60 -268 60 -44 0 -75 4 -68 8 14 9 97 8 179 -3z m239 -95 c3 -5 -1 -10 -9 -10
-9 0 -16 5 -16 10 0 6 4 10 9 10 6 0 13 -4 16 -10z m61 -48 c-4 -3 -14 2 -24
12 -16 18 -16 18 6 6 13 -6 21 -14 18 -18z m39 -20 c-3 -3 -11 0 -18 7 -9 10
-8 11 6 5 10 -3 15 -9 12 -12z m-400 -12 c15 -16 16 -22 5 -35 -16 -20 -49
-16 -63 7 -8 12 -7 21 2 32 18 21 34 20 56 -4z m533 -38 c12 -8 22 -21 22 -28
0 -20 -31 -17 -60 6 -14 11 -36 29 -50 39 l-25 20 45 -11 c25 -6 55 -18 68
-26z m-524 -88 c19 -7 21 -30 4 -37 -39 -14 -94 14 -71 36 8 9 46 9 67 1z"/>
<path d="M6285 7839 c-149 -9 -337 -45 -469 -90 -138 -47 -204 -91 -221 -148
-6 -20 -4 -23 10 -17 14 5 16 2 11 -20 -9 -33 44 -119 77 -128 46 -11 144 27
222 88 22 17 42 33 45 36 18 20 116 72 177 94 208 73 381 68 551 -18 63 -32
121 -81 133 -114 28 -72 -39 -84 -129 -23 -136 92 -241 131 -352 131 -137 0
-237 -36 -363 -131 -45 -34 -101 -71 -124 -81 -52 -23 -62 -37 -38 -54 20 -15
55 -10 96 14 24 14 28 13 47 -6 24 -24 92 -45 130 -40 l27 4 -34 19 c-61 36
-74 50 -67 71 7 22 104 99 114 89 3 -3 7 -34 7 -68 3 -129 59 -179 210 -185
80 -4 93 -2 117 17 36 29 78 106 85 159 3 24 12 46 19 49 17 6 104 -54 104
-72 0 -8 -35 -40 -77 -72 -61 -45 -74 -58 -57 -61 27 -4 129 48 193 98 29 23
72 48 96 56 44 16 54 33 47 81 -6 38 -78 108 -151 147 -114 59 -203 79 -366
78 -198 0 -335 -34 -479 -118 -101 -59 -99 -58 -87 -35 6 10 24 25 41 33 16 7
30 16 30 20 0 5 5 8 10 8 6 0 16 5 23 10 38 33 101 66 167 90 104 38 378 80
524 80 37 0 66 4 66 10 0 12 -168 11 -365 -1z m90 -380 c0 -7 -8 -15 -17 -17
-18 -3 -25 18 -11 32 10 10 28 1 28 -15z m-18 -84 c80 0 100 -16 60 -51 -31
-26 -76 -31 -139 -14 -47 14 -54 25 -33 56 12 19 21 23 33 17 9 -4 45 -8 79
-8z"/>
<path d="M6857 7810 c7 -8 42 -21 78 -30 53 -13 65 -14 65 -3 0 17 -41 33
-105 40 -41 5 -48 3 -38 -7z"/>
<path d="M7219 7728 c5 -13 11 -187 15 -387 3 -200 7 -366 9 -368 7 -6 38 150
44 223 6 79 22 106 47 85 11 -9 12 -20 6 -39 -10 -31 -43 -375 -45 -467 -2
-69 -12 -92 -56 -129 -44 -37 -31 -41 22 -7 133 84 239 328 260 599 13 156 1
270 -33 339 -44 88 -161 172 -240 173 -35 0 -37 -2 -29 -22z"/>
<path d="M8010 7273 c-125 -94 -160 -150 -145 -232 13 -67 46 -96 58 -51 5 20
94 66 106 54 8 -7 8 -12 10 -86 2 -75 17 -62 26 22 10 90 25 138 46 143 18 5
20 13 17 99 -3 92 -3 93 -29 96 -18 2 -44 -11 -89 -45z"/>
<path d="M7755 7143 c-3 -32 -8 -68 -11 -80 -2 -13 0 -23 5 -23 13 0 31 65 31
112 0 60 -18 53 -25 -9z"/>
<path d="M7115 6580 c-13 -6 -15 -9 -5 -9 8 0 22 4 30 9 18 12 2 12 -25 0z"/>
<path d="M7038 6553 c6 -2 18 -2 25 0 6 3 1 5 -13 5 -14 0 -19 -2 -12 -5z"/>
<path d="M1180 6530 c0 -5 5 -10 10 -10 6 0 10 5 10 10 0 6 -4 10 -10 10 -5 0
-10 -4 -10 -10z"/>
<path d="M1276 6513 c4 -16 13 -35 20 -44 10 -11 11 -18 3 -26 -8 -8 -8 -29 0
-77 6 -36 8 -84 5 -106 -5 -31 -3 -44 7 -51 11 -7 12 -12 1 -26 -7 -10 -15
-26 -18 -35 -3 -9 -19 -21 -36 -27 -26 -9 -33 -7 -54 14 -31 31 -34 107 -5
127 24 17 57 85 47 95 -4 5 -19 -5 -32 -22 -17 -21 -24 -25 -24 -13 0 12 -6
15 -22 11 -48 -12 -69 -55 -25 -50 25 2 26 -8 3 -68 -14 -38 -13 -40 5 -43 17
-3 19 -9 13 -52 -7 -53 -3 -56 63 -59 27 -1 32 3 38 29 6 26 8 28 27 17 16 -9
22 -9 25 1 3 6 9 12 14 12 18 0 9 -15 -21 -35 -16 -11 -30 -28 -30 -37 0 -15
-9 -18 -45 -18 -25 0 -45 -4 -45 -9 0 -12 -29 -41 -41 -41 -5 0 -9 11 -9 24 0
29 -19 86 -29 86 -4 0 -9 -21 -10 -47 -1 -27 -4 -55 -7 -65 -2 -9 0 -19 6 -23
19 -12 10 -27 -13 -21 -30 7 -51 -25 -42 -65 6 -28 6 -29 -33 -29 -53 0 -72 8
-72 31 0 12 -5 16 -15 13 -8 -4 -33 12 -61 40 -25 25 -48 46 -49 46 -8 0 15
-73 29 -93 57 -77 67 -93 73 -115 3 -13 2 -27 -3 -32 -15 -13 -54 8 -54 29 0
28 -20 37 -27 12 -8 -30 -19 -26 -32 10 -8 23 -8 36 0 45 12 14 3 54 -12 54
-5 0 -9 -9 -9 -19 0 -26 -10 -51 -21 -51 -4 0 -18 10 -29 22 -17 19 -24 21
-40 10 -26 -16 -28 -15 -32 6 -6 33 -88 21 -88 -13 0 -5 5 -3 10 5 8 13 10 13
10 -2 0 -9 8 -19 18 -22 9 -4 39 -27 67 -52 43 -40 48 -47 37 -64 -16 -26 -15
-32 6 -29 9 1 34 1 56 0 29 -1 37 -4 32 -16 -3 -8 2 -18 10 -23 9 -5 15 -12
15 -15 -3 -20 1 -25 17 -21 10 3 33 -10 59 -36 27 -25 52 -40 68 -40 14 0 25
-4 25 -9 0 -12 -83 -1 -93 13 -8 13 -7 -88 2 -102 3 -6 17 -12 31 -14 24 -5
24 -5 -7 -17 -36 -14 -42 -28 -18 -37 12 -5 13 -10 4 -20 -8 -10 -6 -12 10 -9
24 5 37 -25 22 -53 -8 -15 -6 -23 9 -37 11 -10 20 -26 20 -37 0 -17 1 -17 20
2 24 24 36 25 43 5 7 -17 -8 -29 -25 -19 -6 4 -8 3 -5 -3 8 -13 57 -14 57 -1
0 5 5 6 10 3 6 -3 10 -22 10 -41 0 -23 5 -34 14 -34 11 0 13 9 9 34 -6 38 5
151 14 142 3 -3 8 -75 10 -161 4 -124 2 -156 -9 -160 -7 -2 -53 -6 -101 -9
-49 -2 -90 -6 -93 -8 -2 -3 64 -8 148 -11 124 -6 180 -3 298 13 80 11 217 29
305 40 88 12 166 23 173 25 9 3 12 84 12 359 l0 355 -87 3 -88 3 -2 40 c-1 22
-2 48 -2 58 -1 10 -12 22 -25 27 -18 7 -22 14 -19 34 4 19 1 26 -11 26 -9 0
-16 5 -16 10 0 6 7 10 15 10 22 0 18 28 -5 35 -16 5 -19 12 -14 27 14 45 33
85 46 96 17 14 143 31 160 21 19 -11 41 5 36 26 -4 23 -51 37 -98 31 -20 -3
-52 -1 -72 4 -29 8 -37 16 -40 40 -3 17 -2 32 0 35 9 9 10 65 1 59 -5 -3 -9
-13 -9 -22 0 -10 -8 -29 -17 -42 -21 -29 -44 -91 -38 -101 7 -10 -23 -32 -34
-25 -5 4 -23 35 -41 70 -17 35 -37 67 -45 70 -8 3 -15 11 -15 17 0 7 -6 20
-14 28 -11 12 -12 27 -6 61 5 25 7 46 6 48 -2 1 -11 -16 -21 -38 -10 -22 -21
-40 -25 -40 -8 0 -40 67 -40 85 0 8 -8 18 -17 23 -9 6 -17 16 -19 25 -2 15
-33 67 -40 67 -3 0 -1 -12 2 -27z m124 -253 c0 -5 -2 -10 -4 -10 -3 0 -8 5
-11 10 -3 6 -1 10 4 10 6 0 11 -4 11 -10z m33 -76 c5 -16 14 -35 20 -42 6 -8
12 -40 13 -73 2 -32 5 -63 8 -68 9 -14 -11 -23 -34 -16 -15 5 -20 15 -20 43 0
20 -6 49 -14 63 -8 17 -10 32 -5 40 5 8 6 31 3 53 -7 47 14 47 29 0z m-220
-241 c-7 -2 -19 -2 -25 0 -7 3 -2 5 12 5 14 0 19 -2 13 -5z m-191 -145 c-7 -7
-12 -8 -12 -2 0 14 12 26 19 19 2 -3 -1 -11 -7 -17z m-297 2 c3 -5 -1 -10 -10
-10 -9 0 -13 5 -10 10 3 6 8 10 10 10 2 0 7 -4 10 -10z m40 -59 c7 -12 -12
-24 -25 -16 -11 7 -4 25 10 25 5 0 11 -4 15 -9z m373 -79 c3 -20 1 -22 -25
-16 -72 17 -86 47 -20 42 35 -2 43 -7 45 -26z m1 -237 c-1 -47 -6 -85 -10 -85
-13 0 -15 94 -4 148 10 45 16 20 14 -63z m-192 22 c0 -7 -9 -13 -19 -13 -19 0
-23 8 -11 19 11 12 30 8 30 -6z"/>
<path d="M86 6462 c-4 -18 -5 -36 -2 -39 11 -12 17 5 14 39 l-3 33 -9 -33z"/>
<path d="M1680 6440 c0 -48 12 -66 23 -36 8 20 -3 86 -14 86 -5 0 -9 -22 -9
-50z"/>
<path d="M384 6467 c-8 -22 2 -91 14 -95 17 -5 22 14 16 62 -7 45 -20 59 -30
33z"/>
<path d="M1441 6464 c0 -11 3 -14 6 -6 3 7 2 16 -1 19 -3 4 -6 -2 -5 -13z"/>
<path d="M1152 6458 c-7 -7 -12 -19 -12 -28 0 -9 -5 -21 -12 -28 -9 -9 -7 -12
9 -12 17 0 22 7 25 40 2 22 3 40 3 40 -1 0 -6 -5 -13 -12z"/>
<path d="M72 6384 c-8 -16 -20 -40 -29 -53 l-16 -24 -13 24 c-11 20 -13 -102
-14 -768 0 -436 3 -793 8 -793 4 0 75 9 157 21 83 11 215 28 294 39 79 10 147
23 152 27 15 15 25 228 23 508 l-1 280 -69 1 c-38 0 -85 4 -105 7 -43 9 -78
42 -62 58 6 6 9 17 7 24 -3 6 2 18 11 25 12 10 21 10 41 1 22 -10 25 -16 20
-42 l-6 -30 58 3 c56 3 57 4 60 34 2 25 -3 37 -28 58 -35 29 -50 32 -69 14
-10 -11 -14 -9 -22 5 -8 14 -14 16 -25 6 -11 -9 -17 -9 -29 1 -12 10 -15 10
-15 -3 0 -24 -38 -41 -56 -26 -20 16 -18 29 5 29 22 0 27 11 26 65 0 34 -4 41
-22 43 -17 2 -23 10 -23 27 0 29 34 65 96 101 44 26 49 27 112 17 54 -9 70 -8
82 3 8 8 10 14 3 14 -6 0 -13 9 -16 19 -4 15 -17 21 -61 26 -38 5 -61 4 -70
-5 -12 -9 -20 -8 -38 4 -19 12 -26 12 -41 2 -18 -14 -67 -10 -67 5 0 5 6 8 12
7 7 -2 14 7 16 20 2 12 8 22 13 22 6 0 9 8 8 18 -2 9 2 26 8 37 16 29 27 115
15 115 -13 0 -29 -45 -37 -105 -7 -48 -19 -75 -35 -75 -5 0 -6 10 -2 23 5 20
4 21 -11 8 -9 -7 -17 -22 -17 -32 0 -9 -6 -24 -14 -32 -8 -8 -12 -23 -10 -35
4 -13 -2 -25 -17 -35 -17 -13 -20 -19 -11 -30 7 -8 9 -17 5 -21 -12 -12 -42
68 -36 97 3 16 1 27 -6 27 -6 0 -11 6 -11 13 0 14 -47 66 -73 82 -12 7 -21 36
-30 94 -12 81 -13 83 -25 55z m-32 -154 c0 -5 -2 -10 -4 -10 -3 0 -8 5 -11 10
-3 6 -1 10 4 10 6 0 11 -4 11 -10z m58 -110 c-2 -11 5 -25 14 -32 20 -15 29
-99 12 -105 -16 -6 -35 45 -41 110 -3 43 -2 57 7 52 6 -4 10 -15 8 -25z m330
-11 c-2 -6 -8 -10 -13 -10 -5 0 -11 4 -13 10 -2 6 4 11 13 11 9 0 15 -5 13
-11z m-38 -49 c0 -5 -4 -10 -9 -10 -6 0 -13 5 -16 10 -3 6 1 10 9 10 9 0 16
-4 16 -10z m-246 -123 c6 -9 7 -19 3 -23 -9 -9 -37 15 -37 33 0 18 20 12 34
-10z m198 -89 c-9 -9 -15 -9 -24 0 -10 10 -10 15 2 22 20 12 38 -6 22 -22z
m-172 -8 c0 -5 -5 -10 -11 -10 -5 0 -7 5 -4 10 3 6 8 10 11 10 2 0 4 -4 4 -10z"/>
<path d="M762 6347 c-1 -12 2 -31 8 -42 14 -32 54 -168 55 -189 0 -23 23 -34
29 -14 3 7 6 37 9 66 3 39 1 52 -10 52 -9 0 -12 7 -7 24 3 13 0 29 -8 37 -7 8
-19 26 -25 41 -7 15 -20 31 -30 37 -16 8 -19 6 -21 -12z"/>
<path d="M1677 6363 c-4 -3 -7 -15 -7 -26 0 -16 3 -17 15 -7 8 7 15 19 15 26
0 15 -12 19 -23 7z"/>
<path d="M1036 6341 c-4 -7 -5 -15 -2 -18 9 -9 19 4 14 18 -4 11 -6 11 -12 0z"/>
<path d="M700 6319 c0 -5 5 -7 10 -4 6 3 10 8 10 11 0 2 -4 4 -10 4 -5 0 -10
-5 -10 -11z"/>
<path d="M713 6247 c-8 -16 -9 -29 -3 -32 12 -8 23 17 18 41 -2 14 -6 12 -15
-9z"/>
<path d="M967 6212 c-23 -26 -21 -30 10 -24 l28 5 -34 -39 c-19 -21 -44 -45
-55 -51 -18 -11 -14 -12 27 -6 32 4 47 2 47 -6 0 -6 -5 -11 -11 -11 -5 0 -17
-16 -25 -35 -11 -26 -19 -34 -36 -32 -24 2 -35 -21 -24 -50 6 -14 8 -14 24 1
10 9 24 16 30 16 6 0 14 11 18 25 4 15 13 25 25 25 13 0 20 10 26 38 4 20 5
42 3 47 -3 10 -6 38 -9 90 -1 29 -21 32 -44 7z"/>
<path d="M565 6180 c-3 -5 -1 -10 4 -10 6 0 11 5 11 10 0 6 -2 10 -4 10 -3 0
-8 -4 -11 -10z"/>
<path d="M4751 6161 c-12 -16 -21 -33 -21 -38 0 -10 -53 -92 -74 -113 -17 -18
-31 -80 -18 -80 5 0 30 11 56 25 32 17 63 25 96 25 67 0 72 -16 6 -23 -30 -3
-80 -19 -114 -36 -34 -17 -63 -31 -66 -31 -3 0 -3 20 -2 45 2 24 -1 42 -5 39
-5 -3 -9 -16 -9 -29 0 -17 -4 -22 -18 -18 -13 3 -37 -13 -75 -51 -31 -31 -61
-56 -66 -56 -21 0 -24 95 -7 195 20 120 20 126 0 100 -8 -11 -19 -21 -24 -21
-6 -1 -14 -2 -19 -3 -5 0 -12 -38 -16 -83 -5 -64 -2 -105 13 -180 28 -134 60
-177 182 -242 36 -19 92 -42 125 -51 69 -20 146 -65 174 -103 l19 -26 83 28
c105 36 215 91 314 156 42 27 92 52 111 56 23 4 34 12 34 24 0 16 33 45 70 62
10 4 5 9 -18 14 -21 4 -30 10 -24 16 6 6 43 2 101 -13 72 -19 91 -27 91 -42 0
-22 -37 -37 -98 -38 -26 -1 -60 -4 -77 -8 -26 -6 -27 -8 -10 -13 11 -4 64 -12
117 -18 89 -10 101 -10 141 8 67 30 115 129 88 180 -22 42 -207 132 -270 132
-47 0 -118 -26 -160 -59 -46 -37 -51 -38 -51 -8 1 24 35 68 69 86 11 7 21 17
21 23 0 9 -3 9 -12 0 -16 -16 -28 -15 -28 3 0 8 -7 15 -15 15 -8 0 -15 -4 -15
-10 0 -16 -116 -12 -129 4 -6 7 -38 16 -70 19 -85 9 -142 33 -221 93 -107 81
-147 91 -179 45z"/>
<path d="M724 6165 c-4 -9 0 -24 10 -33 15 -15 16 -14 16 10 0 32 -17 46 -26
23z"/>
<path d="M5425 6070 c-3 -5 -1 -10 4 -10 6 0 11 5 11 10 0 6 -2 10 -4 10 -3 0
-8 -4 -11 -10z"/>
<path d="M620 6027 c-8 -7 -21 -20 -29 -30 -13 -17 -12 -18 12 -12 25 7 27 5
27 -24 0 -36 6 -38 38 -12 27 24 27 31 1 65 -23 29 -28 30 -49 13z"/>
<path d="M610 5710 c0 -13 7 -20 20 -20 11 0 20 4 20 10 0 5 -9 14 -20 20 -17
9 -20 8 -20 -10z"/>
<path d="M1082 5064 c10 -10 20 -16 22 -13 3 3 -5 11 -17 18 -21 13 -21 12 -5
-5z"/>
<path d="M3855 5050 c-34 -16 -41 -17 -43 -5 -11 50 -82 -44 -82 -109 0 -48
31 -101 73 -123 53 -29 232 -29 443 -2 169 22 210 23 759 23 362 0 680 -5 846
-13 216 -12 296 -12 424 -2 87 6 169 17 182 24 l24 13 -29 21 c-55 41 -204 55
-347 33 -157 -24 -585 -8 -585 22 0 5 6 8 13 7 6 -1 48 0 92 1 l80 2 -105 18
c-139 25 -224 24 -356 -2 -133 -26 -316 -36 -312 -16 2 9 -11 14 -37 16 -57 3
-61 3 -150 -8 -50 -7 -181 -8 -345 -4 -421 11 -478 10 -492 -3 -15 -16 -41
-17 -36 -1 7 19 56 29 182 36 66 4 121 12 123 17 2 6 -12 18 -29 27 -26 13
-52 16 -118 13 -47 -2 -86 -9 -88 -15 -7 -21 -22 2 -16 26 8 30 -13 31 -71 4z"/>
<path d="M1090 5005 c0 -8 5 -15 10 -15 6 0 10 7 10 15 0 8 -4 15 -10 15 -5 0
-10 -7 -10 -15z"/>
<path d="M858 4943 c7 -3 16 -2 19 1 4 3 -2 6 -13 5 -11 0 -14 -3 -6 -6z"/>
<path d="M4958 4943 c7 -3 16 -2 19 1 4 3 -2 6 -13 5 -11 0 -14 -3 -6 -6z"/>
<path d="M1180 4670 c-74 -10 -148 -21 -165 -24 -16 -3 -84 -13 -150 -21 -66
-9 -172 -25 -235 -35 -118 -20 -291 -46 -507 -76 l-123 -18 0 -88 0 -89 58 6
c31 4 192 29 357 57 393 66 441 74 630 102 88 14 180 29 205 35 25 5 115 22
200 36 85 15 166 33 180 41 22 12 12 13 -93 14 -115 0 -119 1 -145 27 -23 24
-25 28 -9 31 9 2 17 8 17 13 0 13 -64 10 -220 -11z"/>
<path d="M1665 4610 c-3 -5 1 -10 9 -10 9 0 16 5 16 10 0 6 -4 10 -9 10 -6 0
-13 -4 -16 -10z"/>
<path d="M4746 4559 c-49 -4 -101 -10 -115 -14 -35 -9 -91 -47 -91 -63 0 -7
-18 -31 -40 -53 -22 -23 -38 -44 -35 -49 13 -21 82 -40 200 -55 71 -9 136 -22
144 -28 10 -8 85 -11 260 -9 241 3 331 11 407 37 42 14 57 35 25 35 -14 0 -19
5 -14 16 4 11 8 12 13 4 12 -19 20 29 13 76 -5 37 -9 43 -35 48 -17 3 -45 6
-62 6 -17 0 -63 9 -101 19 -45 12 -135 23 -248 30 -193 12 -190 12 -321 0z"/>
<path d="M7500 4531 c0 -6 5 -13 10 -16 6 -3 10 1 10 9 0 9 -4 16 -10 16 -5 0
-10 -4 -10 -9z"/>
<path d="M1188 4433 c7 -3 16 -2 19 1 4 3 -2 6 -13 5 -11 0 -14 -3 -6 -6z"/>
<path d="M1068 4413 c7 -3 16 -2 19 1 4 3 -2 6 -13 5 -11 0 -14 -3 -6 -6z"/>
<path d="M774 4368 c-7 -10 45 -9 71 2 15 6 9 8 -23 8 -24 -1 -45 -5 -48 -10z"/>
<path d="M616 4351 c-11 -4 -15 -10 -10 -13 14 -9 114 3 114 13 0 11 -77 11
-104 0z"/>
<path d="M485 4320 c-4 -6 6 -7 27 -3 44 8 48 13 10 13 -17 0 -34 -4 -37 -10z"/>
<path d="M420 4305 c-7 -9 -8 -15 -2 -15 5 0 12 7 16 15 3 8 4 15 2 15 -2 0
-9 -7 -16 -15z"/>
<path d="M344 4298 c-3 -4 6 -8 20 -8 14 0 27 4 30 8 2 4 -7 8 -20 8 -14 0
-28 -4 -30 -8z"/>
<path d="M287 4294 c-5 -6 -59 -14 -192 -29 -85 -10 -95 -14 -95 -36 0 -15 5
-19 18 -15 77 22 129 33 261 54 25 4 46 13 49 20 4 12 -29 17 -41 6z"/>
<path d="M2250 4245 c0 -8 5 -15 10 -15 6 0 10 7 10 15 0 8 -4 15 -10 15 -5 0
-10 -7 -10 -15z"/>
<path d="M2250 4181 c0 -43 2 -45 35 -31 17 7 17 9 3 9 -12 1 -18 9 -18 25 0
14 -4 28 -10 31 -6 4 -10 -10 -10 -34z"/>
<path d="M7287 4145 c-35 -48 -47 -85 -28 -85 13 0 73 109 68 123 -2 6 -20
-11 -40 -38z"/>
<path d="M3630 4118 c0 -3 39 -79 59 -116 6 -12 16 -20 21 -17 6 4 -1 25 -15
48 -14 23 -29 52 -35 65 -5 12 -14 22 -20 22 -5 0 -10 -1 -10 -2z"/>
<path d="M1026 4091 c-4 -5 -2 -20 3 -33 9 -21 10 -21 10 10 1 32 -3 39 -13
23z"/>
<path d="M901 4064 c0 -11 3 -14 6 -6 3 7 2 16 -1 19 -3 4 -6 -2 -5 -13z"/>
<path d="M767 4043 c-7 -12 -5 -63 2 -63 4 0 8 16 9 35 3 33 -2 44 -11 28z"/>
<path d="M363 3925 c0 -33 2 -45 4 -27 2 18 2 45 0 60 -2 15 -4 0 -4 -33z"/>
<path d="M494 3969 c-3 -6 -1 -16 5 -22 8 -8 11 -5 11 11 0 24 -5 28 -16 11z"/>
<path d="M3727 3963 c-12 -11 -7 -33 7 -33 7 0 19 -7 26 -15 18 -21 29 -19 23
5 -3 11 -10 17 -15 14 -5 -3 -12 3 -15 15 -5 21 -14 26 -26 14z"/>
<path d="M210 3908 c0 -49 6 -47 13 5 3 20 1 37 -4 37 -5 0 -9 -19 -9 -42z"/>
<path d="M65 3900 c-8 -38 6 -65 16 -30 10 37 10 60 0 60 -5 0 -12 -13 -16
-30z"/>
<path d="M64 3826 c-3 -8 -1 -34 4 -58 l10 -43 1 58 c1 56 -4 71 -15 43z"/>
<path d="M4627 3383 c-4 -3 -7 -13 -7 -22 1 -13 3 -13 11 2 11 19 8 33 -4 20z"/>
<path d="M5952 3349 c1 -12 9 -24 16 -27 9 -3 13 3 10 19 -1 12 -9 24 -16 27
-9 3 -13 -3 -10 -19z"/>
<path d="M3870 1890 c0 -5 5 -10 10 -10 6 0 10 5 10 10 0 6 -4 10 -10 10 -5 0
-10 -4 -10 -10z"/>
<path d="M7570 770 c0 -5 5 -10 11 -10 5 0 7 5 4 10 -3 6 -8 10 -11 10 -2 0
-4 -4 -4 -10z"/>
</g>
</svg>
