<?xml version="1.0" standalone="no"?>
<!DOCTYPE svg PUBLIC "-//W3C//DTD SVG 20010904//EN"
 "http://www.w3.org/TR/2001/REC-SVG-20010904/DTD/svg10.dtd">
<svg version="1.0" xmlns="http://www.w3.org/2000/svg"
 width="488.000000pt" height="651.000000pt" viewBox="0 0 488.000000 651.000000"
 preserveAspectRatio="xMidYMid meet">

<g transform="translate(0.000000,651.000000) scale(0.100000,-0.100000)"
fill="#000000" stroke="none">
<path d="M2050 5852 c-14 -2 -32 -9 -40 -16 -24 -20 -81 -43 -140 -56 -72 -17
-95 -29 -55 -31 l30 -1 -30 -9 c-16 -5 -38 -7 -47 -5 -20 5 -25 -10 -5 -17 6
-3 2 -6 -9 -6 -12 -1 -27 -7 -33 -15 -7 -8 -28 -17 -47 -21 -31 -5 -35 -9 -30
-30 4 -17 -4 -36 -29 -71 -19 -27 -38 -54 -41 -61 -3 -6 -28 -34 -55 -62 -51
-53 -69 -92 -22 -50 l27 24 -19 -30 c-10 -16 -53 -66 -96 -110 -132 -137 -138
-145 -144 -208 -3 -31 -9 -67 -15 -81 -20 -54 -53 -121 -76 -155 -32 -49 -69
-221 -44 -206 12 7 13 -58 3 -131 -5 -36 -8 -43 -14 -29 -5 14 -8 7 -8 -25 -1
-25 -4 -56 -8 -69 -5 -20 -3 -23 10 -18 21 8 21 3 2 -69 -8 -31 -12 -60 -10
-65 3 -4 8 -61 11 -126 3 -65 10 -125 14 -134 7 -12 1 -22 -20 -38 -29 -21
-30 -25 -30 -101 0 -79 0 -80 31 -95 38 -20 59 -68 59 -134 0 -36 -5 -53 -16
-59 -13 -7 -16 -22 -12 -78 3 -54 13 -89 45 -159 23 -49 45 -106 49 -125 11
-54 12 -174 2 -187 -6 -7 -8 -46 -5 -90 4 -43 9 -118 12 -168 3 -49 10 -108
15 -130 5 -22 12 -66 15 -97 l6 -57 -33 -6 c-18 -3 -94 -14 -168 -26 -307 -45
-280 -39 -261 -58 9 -10 19 -16 24 -14 4 2 7 -1 7 -8 0 -8 22 -10 84 -4 81 6
84 6 79 -13 -2 -11 0 -23 6 -26 7 -5 8 -1 4 10 -5 13 -3 16 10 11 9 -3 17 -2
17 3 0 6 7 10 15 10 8 0 15 -5 15 -12 0 -9 3 -9 12 0 17 17 33 15 18 -3 -17
-20 4 -20 24 1 21 20 20 31 -1 43 -14 8 -8 10 25 7 31 -3 42 -1 42 10 0 8 6
14 14 14 7 0 20 10 28 22 19 29 44 18 53 -23 10 -46 103 -237 137 -281 28 -35
58 -97 58 -117 0 -6 -19 -20 -42 -32 -24 -12 -99 -78 -168 -148 -92 -93 -156
-147 -242 -204 -132 -88 -386 -324 -419 -389 -11 -21 -26 -41 -34 -45 -8 -3
-47 2 -86 11 -136 31 -226 17 -456 -71 l-43 -16 0 -548 0 -549 1014 0 1015 0
-24 57 c-12 32 -32 80 -44 107 -12 27 -20 50 -18 53 2 2 26 -46 53 -107 l49
-110 746 0 746 0 51 107 c27 60 57 124 65 143 8 19 27 62 41 95 15 33 20 52
12 42 -11 -14 -15 -15 -20 -5 -3 7 -3 1 0 -13 6 -28 -6 -42 -38 -44 -11 -1
-18 5 -18 17 0 10 5 18 12 18 6 0 9 2 6 5 -2 3 -48 -17 -101 -44 -93 -47 -254
-108 -262 -99 -3 2 26 15 63 28 138 47 290 138 391 233 47 44 91 110 91 137 0
18 74 173 77 163 2 -6 -12 -46 -30 -89 -19 -44 -40 -97 -47 -119 -7 -22 -68
-150 -135 -286 -67 -135 -126 -255 -129 -267 l-7 -22 165 0 165 0 83 60 c46
33 87 60 92 60 6 0 -22 -23 -62 -50 -39 -28 -74 -55 -77 -60 -4 -6 172 -10
474 -10 l481 0 0 628 0 629 -42 18 c-24 9 -54 22 -68 27 -14 6 -84 30 -157 53
-149 48 -161 56 -265 157 -41 40 -98 96 -127 123 -29 28 -70 75 -91 105 -90
133 -322 297 -468 333 -42 11 -47 15 -50 43 -2 16 6 51 17 78 12 26 16 44 11
41 -18 -11 -50 -84 -50 -114 0 -16 -5 -42 -10 -56 -6 -15 -16 -80 -22 -146
-16 -154 -11 -165 114 -258 117 -87 140 -112 174 -186 33 -72 44 -195 24 -284
-15 -71 -73 -189 -142 -288 -122 -176 -359 -328 -586 -375 -81 -17 -121 -19
-247 -15 -327 12 -667 131 -1000 351 -110 73 -265 211 -265 235 0 18 24 1 55
-38 17 -21 33 -37 38 -34 4 2 7 -1 7 -8 0 -7 3 -10 6 -7 3 4 21 -9 41 -28 19
-19 39 -34 44 -34 4 0 22 -14 39 -30 17 -17 33 -30 36 -30 3 0 20 -11 37 -24
18 -14 39 -26 47 -28 8 -2 17 -5 20 -8 3 -3 18 -14 33 -23 l28 -18 -18 27
c-14 22 -15 27 -3 22 8 -3 42 -1 75 4 33 5 126 8 207 8 185 -1 207 8 239 89
17 42 43 77 108 142 47 48 116 118 153 157 38 39 105 96 150 126 108 70 168
129 201 195 16 32 59 86 111 137 46 46 110 122 141 169 31 47 61 87 65 90 5 3
11 19 15 35 4 17 10 30 14 30 8 0 41 54 41 67 -1 8 -11 -4 -63 -71 -12 -15
-50 -56 -83 -90 -34 -34 -72 -82 -84 -105 -23 -46 -37 -51 -20 -7 5 15 10 37
10 49 -1 20 -2 21 -14 5 -7 -10 -17 -18 -21 -18 -8 0 -1 92 11 140 11 46 -15
-1 -32 -57 -11 -38 -24 -59 -47 -74 -18 -12 -45 -34 -61 -48 l-28 -26 7 25 c9
28 14 31 -75 -41 -25 -20 -80 -60 -123 -89 -63 -42 -81 -50 -88 -39 -7 11 -9
9 -9 -8 0 -23 -8 -27 -45 -23 -28 3 -30 7 -13 27 28 34 32 46 11 35 -11 -6
-25 -17 -31 -25 -8 -9 -35 -14 -79 -15 -37 -1 -69 -6 -73 -13 -5 -6 -12 2 -18
20 -13 37 -26 41 -20 6 7 -34 -3 -31 -24 5 -11 18 -25 30 -38 30 -27 0 -123
-31 -131 -42 -3 -5 -16 -10 -28 -13 -18 -3 -21 -2 -11 10 7 9 8 15 0 20 -5 3
-10 3 -10 -1 0 -3 -11 1 -25 10 -23 15 -25 15 -38 -5 -11 -15 -16 -17 -21 -7
-4 9 -8 9 -11 2 -3 -6 -11 -19 -18 -29 -12 -15 -13 -12 -10 21 l3 39 -10 -32
c-6 -18 -19 -37 -30 -43 -24 -13 -26 -3 -3 22 22 25 8 36 -17 13 -24 -22 -36
-14 -21 13 6 12 11 23 11 26 0 12 -51 5 -85 -11 l-35 -17 -62 66 c-94 99 -133
144 -134 154 -2 31 -26 64 -46 64 -23 0 -83 58 -94 92 -3 10 -9 18 -14 18 -5
0 -12 16 -16 35 -3 19 -11 35 -16 35 -6 0 -7 -8 -3 -17 3 -10 15 -44 26 -77
21 -62 40 -97 73 -134 27 -31 13 -28 -20 4 -29 30 -49 73 -84 179 -12 39 -26
75 -30 80 -18 25 -61 163 -69 220 -6 40 -31 114 -66 195 -66 150 -72 201 -34
287 16 34 22 69 22 118 1 75 -17 116 -85 193 -26 30 -27 34 -12 49 12 13 13
17 2 24 -9 6 -3 9 17 9 l30 0 -31 22 c-61 43 -106 135 -130 268 -21 116 -18
186 10 247 29 62 77 93 192 124 108 30 416 33 541 6 107 -23 183 -52 225 -87
31 -26 33 -31 31 -88 -2 -117 -90 -335 -170 -423 -36 -39 -34 -51 2 -26 11 8
33 22 50 33 l30 19 -20 -26 c-11 -15 -33 -36 -50 -48 -16 -11 -41 -31 -55 -44
-14 -12 -42 -35 -63 -51 -21 -16 -36 -31 -33 -33 11 -12 118 57 171 111 78 78
179 249 212 358 28 89 56 124 108 134 42 8 90 -17 116 -59 10 -18 35 -73 54
-123 20 -50 54 -122 77 -160 22 -38 56 -98 74 -134 42 -81 45 -53 4 37 -17 36
-28 68 -26 70 2 2 21 -13 41 -34 l37 -38 -32 48 c-88 133 -137 289 -131 424 4
103 332 187 633 163 140 -12 296 -47 337 -77 14 -11 39 -39 55 -62 28 -38 30
-48 29 -124 -2 -99 -13 -156 -55 -265 -25 -67 -40 -91 -77 -124 l-46 -40 40
16 c71 29 130 113 188 271 14 39 29 85 32 104 4 19 22 48 40 66 31 32 32 34
39 161 5 71 10 156 12 189 2 33 11 92 21 130 19 79 21 177 6 342 -8 95 -13
117 -36 150 -14 21 -34 63 -44 93 -9 30 -36 85 -59 121 -24 37 -52 86 -64 110
-38 73 -132 213 -159 236 -14 13 -37 44 -51 69 -14 26 -38 54 -55 63 -52 27
-135 83 -143 95 -18 27 -85 76 -105 76 -13 0 -72 31 -132 69 -142 90 -224 129
-308 147 -37 7 -81 21 -97 29 -79 41 -121 48 -235 40 -138 -10 -188 -8 -245 9
-61 19 -81 22 -110 18z m433 -67 c40 -4 154 -52 145 -61 -3 -3 -30 1 -59 10
-30 8 -85 17 -124 20 l-70 5 85 -18 c85 -19 216 -66 225 -81 3 -5 -7 -5 -22 0
-123 40 -199 59 -268 64 -106 9 -194 25 -225 41 -23 13 -21 14 35 13 33 -1 76
4 95 10 19 6 60 9 90 6 30 -4 72 -8 93 -9z m-318 -44 c39 -11 97 -24 130 -30
33 -6 87 -24 120 -41 33 -17 80 -36 105 -44 l45 -14 -46 -1 c-34 -1 -63 8
-108 31 -51 26 -64 29 -71 18 -7 -11 -17 -12 -60 -2 -28 7 -61 12 -73 12 -41
0 4 -19 63 -26 30 -4 64 -11 75 -16 28 -12 -74 -1 -150 17 -33 7 -125 16 -205
19 -108 3 -135 2 -105 -5 124 -31 167 -39 216 -40 53 -2 49 -3 -41 -15 -84
-12 -10 -23 145 -23 81 0 149 -2 153 -5 3 -3 -55 -6 -129 -7 -129 -1 -132 -1
-84 -14 l50 -13 -86 -1 c-47 0 -112 -6 -145 -12 -67 -12 -214 -76 -214 -94 0
-6 -26 -19 -57 -29 -32 -10 -65 -21 -73 -24 -35 -13 191 183 230 200 l25 11
-30 7 c-29 6 -29 6 -7 14 28 10 21 22 -18 30 -18 3 -29 10 -25 16 3 5 -1 10
-9 10 -9 0 -16 4 -16 10 0 15 67 23 143 16 270 -23 342 -12 113 17 -65 9 -121
19 -125 23 -7 8 51 2 198 -20 57 -9 106 -14 108 -13 4 5 -90 25 -154 33 -29 4
-50 10 -47 15 9 15 86 10 159 -10z m580 -91 c3 -6 -1 -7 -9 -4 -18 7 -21 14
-7 14 6 0 13 -4 16 -10z m-400 -136 c61 -10 123 -14 160 -10 64 6 259 -13 390
-40 100 -20 261 -96 331 -155 28 -24 81 -69 118 -99 74 -60 119 -116 161 -199
16 -33 30 -50 34 -42 5 7 14 -3 25 -25 25 -54 30 -35 7 32 -18 56 -18 58 -1
36 10 -12 35 -64 54 -115 31 -79 76 -165 76 -146 0 4 -11 37 -25 73 -14 37
-25 69 -25 72 0 16 23 -14 51 -66 17 -33 35 -58 38 -55 4 2 27 -38 52 -88 l44
-92 3 -140 c2 -77 0 -187 -4 -245 l-9 -105 -6 125 c-9 167 -40 352 -56 336 -6
-5 7 -103 28 -217 6 -30 9 -66 7 -80 -5 -26 -7 -22 -27 41 -10 33 -10 33 -5
-15 3 -27 7 -81 10 -120 6 -86 -10 -60 -20 33 -4 35 -12 76 -17 90 -6 15 -15
51 -20 81 -11 68 -29 91 -23 30 3 -24 9 -70 15 -102 6 -33 8 -61 6 -63 -2 -3
-15 30 -28 73 -28 90 -37 76 -14 -21 8 -37 20 -121 27 -187 11 -113 13 -121
37 -135 24 -13 16 -14 -89 -9 -63 4 -146 11 -185 15 -38 5 -149 10 -245 11
-188 1 -195 12 -17 28 l92 9 -133 0 c-74 0 -136 3 -139 6 -4 3 0 6 8 6 8 0 15
8 15 18 0 14 -12 17 -74 20 -81 3 -128 -8 -185 -46 -21 -14 -46 -26 -55 -28
-38 -5 -62 -17 -62 -31 0 -8 -4 -12 -9 -9 -5 3 -15 -1 -22 -10 -12 -15 -8 -16
41 -9 30 4 65 11 78 16 13 5 29 9 35 8 23 -1 -39 -21 -143 -46 -97 -23 -116
-24 -250 -18 -138 6 -266 25 -313 46 -22 9 -7 8 113 -6 20 -3 2 6 -42 21 -45
14 -78 31 -78 38 0 19 -95 58 -152 64 -34 3 -55 0 -72 -12 -14 -9 -33 -16 -42
-16 -29 0 -5 -14 44 -27 41 -10 30 -10 -78 -6 -69 2 -130 6 -136 8 -19 5 -258
-23 -324 -39 -79 -19 -103 -20 -72 -3 20 12 24 23 27 88 3 41 11 110 19 155
12 69 12 91 0 160 -20 113 -17 175 11 310 24 117 90 296 134 368 35 55 35 43
1 -24 -17 -33 -44 -101 -61 -151 -16 -50 -33 -98 -36 -107 -6 -14 -4 -15 9 -5
8 7 38 66 67 132 29 65 67 141 84 169 48 75 205 247 246 270 20 11 87 34 148
51 62 18 146 46 185 63 55 24 94 33 158 38 l85 6 -57 12 c-32 8 -60 18 -64 23
-3 6 4 8 18 5 12 -3 68 -13 123 -22z m341 15 c24 -6 44 -16 44 -21 0 -5 -8 -7
-17 -5 -10 3 -35 8 -55 12 -21 3 -38 10 -38 15 0 13 11 12 66 -1z m-693 -56
c-7 -2 -19 -2 -25 0 -7 3 -2 5 12 5 14 0 19 -2 13 -5z m-158 -24 c-33 -10 -64
-18 -70 -18 -18 1 89 37 110 37 11 0 -7 -8 -40 -19z m134 -14 c-54 -29 -308
-91 -287 -69 18 17 229 83 268 83 45 0 45 0 19 -14z m-549 -259 c0 -2 -8 -10
-17 -17 -16 -13 -17 -12 -4 4 13 16 21 21 21 13z m-181 -495 c-7 -28 -15 -49
-17 -46 -2 2 1 27 8 55 7 28 14 49 17 46 3 -3 -1 -28 -8 -55z m2638 -263 c-3
-8 -6 -5 -6 6 -1 11 2 17 5 13 3 -3 4 -12 1 -19z m-1907 -428 c20 -6 21 -8 5
-8 -11 0 -31 4 -45 8 -20 6 -21 8 -5 8 11 0 31 -4 45 -8z m-760 -141 c0 -5
-16 -9 -35 -9 -39 0 -48 17 -12 22 27 5 47 -1 47 -13z m2580 0 c0 -11 -46 -23
-59 -14 -16 10 -13 23 7 27 23 5 52 -2 52 -13z m-2203 -1999 c18 -60 22 -139
10 -183 -5 -18 -4 -26 2 -23 10 6 13 -9 25 -99 9 -67 106 -278 197 -431 51
-84 62 -115 33 -92 -92 74 -153 158 -197 270 -29 73 -67 245 -67 303 0 20 -4
34 -9 31 -5 -3 -6 33 -3 82 4 83 0 112 -34 219 -5 15 -3 15 11 -2 9 -11 23
-45 32 -75z m688 -251 c-9 -17 -19 -28 -22 -25 -6 6 23 56 32 56 3 0 -2 -14
-10 -31z m415 7 c0 -17 -14 -29 -23 -20 -8 8 3 34 14 34 5 0 9 -6 9 -14z m180
-161 c-13 -16 -111 -65 -130 -65 -9 0 125 77 139 79 2 1 -2 -6 -9 -14z m1036
-75 c8 -40 13 -74 11 -77 -5 -4 -37 129 -37 150 0 27 12 -7 26 -73z m-2359
-52 c-3 -8 -6 -5 -6 6 -1 11 2 17 5 13 3 -3 4 -12 1 -19z m288 -327 c-3 -6
-11 -11 -16 -11 -5 0 -4 6 3 14 14 16 24 13 13 -3z m-5 -541 c11 -22 18 -40
15 -40 -2 0 -14 18 -25 40 -11 22 -18 40 -15 40 2 0 14 -18 25 -40z m1800 -4
c0 -3 -4 -8 -10 -11 -5 -3 -10 -1 -10 4 0 6 5 11 10 11 6 0 10 -2 10 -4z
m-1286 -162 c26 -9 45 -18 43 -20 -2 -2 -28 5 -58 15 -30 11 -49 20 -43 20 6
1 32 -6 58 -15z m926 -3 c-8 -5 -33 -12 -55 -15 l-40 -5 40 13 c48 17 79 21
55 7z m-122 -28 c-10 -2 -26 -2 -35 0 -10 3 -2 5 17 5 19 0 27 -2 18 -5z
m-643 -17 c38 -9 49 -14 30 -14 -16 0 -48 5 -70 13 -53 17 -35 17 40 1z m545
3 c-25 -4 -88 -7 -140 -6 l-95 1 85 6 c47 3 110 7 140 7 l55 0 -45 -8z m200
-29 c-8 -5 -22 -9 -30 -9 -10 0 -8 3 5 9 27 12 43 12 25 0z m-557 -17 c-7 -2
-19 -2 -25 0 -7 3 -2 5 12 5 14 0 19 -2 13 -5z m500 0 c-7 -2 -21 -2 -30 0
-10 3 -4 5 12 5 17 0 24 -2 18 -5z m-430 -10 c-7 -2 -19 -2 -25 0 -7 3 -2 5
12 5 14 0 19 -2 13 -5z m355 0 c-10 -2 -28 -2 -40 0 -13 2 -5 4 17 4 22 1 32
-1 23 -4z m-80 -9 c-8 -7 -228 -7 -236 0 -3 3 50 6 118 6 68 0 121 -3 118 -6z"/>
<path d="M2730 4065 c-7 -8 -9 -15 -6 -15 4 0 14 7 22 15 9 8 11 15 6 15 -5 0
-15 -7 -22 -15z"/>
<path d="M1460 4035 c-16 -9 -19 -14 -9 -15 8 0 24 7 35 15 24 18 7 19 -26 0z"/>
<path d="M2695 4040 c-3 -5 -1 -10 4 -10 6 0 11 5 11 10 0 6 -2 10 -4 10 -3 0
-8 -4 -11 -10z"/>
<path d="M2685 4010 c-3 -5 -1 -10 4 -10 6 0 11 5 11 10 0 6 -2 10 -4 10 -3 0
-8 -4 -11 -10z"/>
<path d="M3395 4015 c23 -8 85 -10 85 -3 0 4 -21 8 -47 7 -27 0 -43 -2 -38 -4z"/>
<path d="M1685 5700 c-3 -5 -1 -10 4 -10 6 0 11 5 11 10 0 6 -2 10 -4 10 -3 0
-8 -4 -11 -10z"/>
<path d="M1580 3910 c-158 -17 -249 -52 -294 -113 -18 -24 -21 -42 -20 -116 3
-178 83 -344 189 -392 61 -28 76 -22 18 6 -28 14 -54 32 -56 39 -4 11 -11 463
-8 514 1 6 7 12 15 12 11 0 13 -14 9 -64 -7 -81 3 -137 21 -130 9 3 17 -3 21
-15 12 -40 105 -66 159 -45 15 6 15 8 -1 20 -24 18 -8 17 67 -2 34 -8 64 -13
67 -10 3 2 -13 14 -35 25 -56 29 -59 39 -23 72 18 16 33 29 34 29 1 0 2 -16 3
-35 1 -67 67 -113 136 -95 50 14 78 42 78 78 0 40 10 46 37 20 l23 -22 -32
-34 c-24 -26 -28 -33 -13 -27 20 8 120 24 183 29 33 3 34 2 27 -33 -4 -23 -3
-32 3 -26 14 14 30 72 38 130 5 42 2 54 -16 78 -54 68 -194 107 -405 112 -82
2 -184 0 -225 -5z m145 -71 c-32 -10 -61 -16 -63 -14 -5 5 88 34 108 33 8 0
-12 -8 -45 -19z m134 -33 c-2 -2 -38 -6 -79 -9 -44 -3 -65 -2 -50 3 24 8 137
14 129 6z m105 -27 c8 -9 6 -10 -9 -4 -11 4 -33 11 -50 16 -27 8 -26 8 9 4 22
-2 44 -10 50 -16z m76 -45 c0 -2 -9 0 -20 6 -11 6 -20 13 -20 16 0 2 9 0 20
-6 11 -6 20 -13 20 -16z m-172 -32 c3 -9 -2 -13 -14 -10 -9 1 -19 9 -22 16 -3
9 2 13 14 10 9 -1 19 -9 22 -16z m247 -4 c14 -6 25 -15 25 -20 0 -13 -13 -9
-40 12 -28 22 -23 25 15 8z m-241 -59 c-8 -14 -44 -10 -44 5 0 9 8 12 25 8 14
-2 22 -8 19 -13z"/>
<path d="M2929 3904 c-94 -17 -181 -48 -216 -78 l-27 -23 21 -39 c29 -57 67
-58 144 -4 99 69 142 84 244 85 75 0 97 -4 133 -23 51 -27 82 -56 82 -77 0
-25 -39 -17 -101 21 -64 40 -124 52 -203 40 -51 -8 -224 -115 -204 -127 6 -4
22 -3 36 2 15 6 29 6 36 0 6 -5 27 -12 46 -16 l35 -7 -30 26 -30 25 30 25 30
24 3 -26 c8 -77 37 -102 117 -102 52 0 81 25 91 77 7 37 23 42 48 14 16 -18
15 -20 -21 -49 -53 -43 -19 -41 46 2 28 19 60 38 71 41 29 9 25 47 -7 80 -44
43 -109 67 -198 73 -101 6 -172 -9 -258 -53 -82 -42 -81 -33 1 18 71 44 142
63 277 75 l100 9 -110 1 c-60 0 -144 -6 -186 -14z m151 -174 c0 -5 -5 -10 -11
-10 -5 0 -7 5 -4 10 3 6 8 10 11 10 2 0 4 -4 4 -10z m28 -60 c-4 -17 -65 -25
-87 -11 -24 15 -3 28 44 27 35 -1 45 -5 43 -16z"/>
<path d="M3345 3896 c35 -18 64 -21 49 -6 -5 5 -25 12 -44 15 l-35 5 30 -14z"/>
<path d="M3509 3873 c0 -5 1 -62 3 -128 1 -66 1 -154 0 -195 -2 -41 0 -72 3
-68 3 3 11 38 18 79 7 42 18 74 26 77 9 3 11 -2 8 -14 -10 -34 -28 -245 -22
-255 4 -5 -7 -23 -24 -39 -36 -36 -24 -40 17 -6 86 73 146 304 111 429 -5 21
-22 51 -37 67 -27 29 -101 67 -103 53z"/>
<path d="M3888 3626 c-50 -39 -58 -52 -58 -101 0 -42 11 -50 33 -24 9 10 24
19 32 19 15 0 19 -9 17 -48 -1 -12 3 -20 8 -17 6 4 10 21 10 40 0 41 9 67 21
59 5 -3 9 20 9 50 0 67 -9 70 -72 22z"/>
<path d="M3768 3550 c-4 -45 7 -41 17 8 4 19 3 32 -3 32 -6 0 -12 -18 -14 -40z"/>
<path d="M530 3259 c0 -9 3 -19 7 -22 8 -9 14 -136 7 -159 -3 -11 -15 -18 -30
-18 -21 0 -24 5 -24 33 0 17 7 41 15 51 18 24 20 48 2 26 -7 -8 -21 -15 -31
-15 -11 0 -21 -6 -24 -13 -2 -7 2 -10 12 -6 19 7 20 0 4 -26 -11 -17 -10 -22
0 -29 8 -4 12 -17 10 -27 -2 -14 4 -20 25 -22 15 -2 27 1 27 6 0 6 7 12 15 16
20 7 19 4 -4 -22 -10 -12 -25 -22 -33 -22 -8 0 -19 -5 -25 -11 -9 -9 -14 -5
-19 16 -8 34 -24 13 -20 -27 2 -19 -1 -25 -10 -21 -13 5 -18 -7 -15 -34 3 -25
-36 -18 -76 14 -49 39 -54 32 -18 -21 26 -38 32 -66 15 -66 -5 0 -10 7 -10 15
0 8 -4 15 -10 15 -5 0 -10 -6 -10 -12 0 -9 -4 -8 -10 2 -5 8 -7 22 -4 32 2 9
0 19 -6 23 -6 3 -10 -3 -10 -16 0 -18 -2 -19 -15 -9 -9 7 -18 10 -22 7 -3 -4
-11 -3 -17 2 -6 4 -19 11 -28 14 -32 11 -19 -17 18 -41 26 -17 35 -29 31 -43
-4 -15 0 -19 24 -19 19 0 29 -5 29 -15 0 -8 6 -15 14 -15 15 0 32 -35 28 -57
-2 -7 1 -13 6 -13 16 0 24 -33 10 -41 -9 -6 -9 -11 2 -24 8 -9 14 -26 15 -36
1 -11 9 -28 18 -37 16 -15 17 -15 18 3 0 17 2 16 11 -5 6 -14 14 -43 18 -65 6
-33 8 -28 8 33 0 40 2 75 5 78 3 3 8 -27 12 -66 8 -77 4 -86 -35 -92 -25 -4
-25 -4 4 -13 20 -5 94 0 213 16 l183 23 0 178 0 178 -45 0 c-45 0 -45 0 -45
35 0 19 -4 35 -10 35 -5 0 -10 6 -10 14 0 8 -6 17 -12 19 -10 4 -9 6 1 6 11 1
11 4 1 16 -27 33 39 86 90 72 11 -3 22 -1 25 3 7 11 -28 30 -52 28 -38 -3 -53
3 -53 20 0 10 5 23 12 30 7 7 8 12 4 12 -5 0 -3 7 4 15 7 9 8 15 2 15 -10 0
-51 -80 -58 -113 -4 -25 -14 -35 -14 -15 0 8 -14 35 -31 61 -26 40 -30 52 -25
94 l5 48 -10 -42 c-11 -47 -24 -55 -35 -21 -11 34 -44 85 -44 67z m100 -235
c0 -32 -12 -45 -24 -25 -6 8 -10 81 -7 106 3 23 31 -50 31 -81z m-160 -194 c0
-13 -20 -13 -40 0 -12 8 -9 10 13 10 15 0 27 -4 27 -10z m-86 -68 c3 -5 -1 -9
-9 -9 -8 0 -12 4 -9 9 3 4 7 8 9 8 2 0 6 -4 9 -8z m77 -79 c-10 -17 -10 -17
-11 2 0 11 4 31 8 45 l7 25 3 -27 c2 -15 -1 -35 -7 -45z"/>
<path d="M738 3244 c-5 -4 -8 -19 -8 -33 0 -18 3 -22 11 -14 6 6 9 21 7 33 -1
12 -6 18 -10 14z"/>
<path d="M84 3224 c3 -9 6 -22 6 -30 0 -9 4 -13 9 -10 11 7 2 56 -11 56 -6 0
-7 -7 -4 -16z"/>
<path d="M462 3215 c-10 -21 -9 -25 3 -25 9 0 15 10 15 25 0 14 -2 25 -3 25
-2 0 -9 -11 -15 -25z"/>
<path d="M270 3170 c-8 -6 -10 -10 -3 -10 6 0 20 -28 31 -62 14 -47 21 -58 27
-45 18 43 -25 136 -55 117z"/>
<path d="M86 3158 c-3 -7 -7 -26 -10 -41 -4 -15 -11 -25 -16 -22 -11 7 -31
-35 -23 -48 3 -5 -4 -11 -16 -14 -21 -5 -21 -9 -21 -322 l0 -317 93 13 c50 7
98 15 105 18 9 3 12 52 12 200 l0 195 -43 0 c-52 0 -81 18 -71 43 8 23 40 17
36 -6 -2 -13 4 -17 28 -17 23 0 30 5 30 19 0 23 -25 45 -44 38 -8 -3 -16 -2
-18 3 -2 6 -15 3 -30 -4 -16 -9 -30 -11 -33 -5 -4 5 -2 9 3 9 16 0 21 51 6 57
-45 17 30 77 89 72 18 -2 33 0 35 4 7 22 -1 28 -36 26 -21 -2 -43 0 -49 4 -6
4 -14 3 -18 -3 -4 -6 -11 -8 -16 -4 -5 3 -7 10 -4 15 4 5 8 17 10 26 2 10 6
30 10 46 7 26 -2 40 -9 15z m-16 -228 c0 -5 -5 -10 -11 -10 -5 0 -7 5 -4 10 3
6 8 10 11 10 2 0 4 -4 4 -10z"/>
<path d="M375 3100 c-3 -5 -1 -10 6 -10 8 0 7 -5 -2 -17 -11 -12 -11 -17 -2
-20 9 -3 8 -11 -3 -29 -9 -13 -20 -21 -25 -18 -5 3 -9 -5 -9 -17 0 -19 2 -20
17 -8 45 35 48 42 45 102 -2 27 -15 36 -27 17z"/>
<path d="M261 3074 c0 -11 3 -14 6 -6 3 7 2 16 -1 19 -3 4 -6 -2 -5 -13z"/>
<path d="M2250 3046 c-16 -25 -30 -50 -30 -56 0 -6 -12 -16 -27 -23 -16 -6
-36 -22 -46 -34 -33 -40 -40 -29 -34 52 5 71 5 74 -14 62 -39 -24 -18 -175 31
-222 15 -14 60 -40 101 -56 40 -16 81 -39 91 -49 18 -19 19 -19 75 1 32 11 88
38 124 60 l67 40 84 -6 c79 -7 84 -6 105 16 39 44 34 69 -22 107 -43 29 -56
33 -98 29 -26 -2 -55 -11 -65 -21 -40 -36 -44 -11 -4 29 15 16 21 25 13 20 -8
-4 -17 -2 -22 6 -5 9 -9 9 -9 3 0 -12 -43 -12 -85 -1 -11 3 -33 8 -50 12 -16
5 -51 23 -76 41 -26 19 -54 34 -62 34 -9 0 -30 -20 -47 -44z m35 -70 c-22 -7
-50 -18 -62 -25 -13 -6 -23 -8 -23 -3 0 14 63 41 95 41 28 0 27 -1 -10 -13z
m396 -107 c48 -11 51 -13 34 -25 -21 -16 -105 -19 -105 -5 0 5 10 13 23 17 21
7 21 7 2 15 -29 11 -13 11 46 -2z"/>
<path d="M195 3000 c-16 -18 -17 -20 -2 -14 12 4 17 1 17 -12 0 -17 1 -17 17
-1 16 15 16 19 2 32 -14 14 -17 14 -34 -5z"/>
<path d="M200 2850 c0 -5 5 -10 10 -10 6 0 10 5 10 10 0 6 -4 10 -10 10 -5 0
-10 -4 -10 -10z"/>
<path d="M1776 2509 c-21 -31 -20 -61 2 -89 26 -32 90 -36 263 -16 118 13 202
14 464 9 387 -9 573 -8 610 1 l28 7 -23 16 c-24 17 -50 18 -275 12 -66 -2
-138 1 -160 6 l-40 9 35 6 c32 6 29 7 -30 14 -42 5 -83 3 -115 -4 -59 -14
-175 -22 -175 -12 0 9 -477 7 -515 -3 -23 -6 -27 -5 -19 4 6 7 46 15 89 18 70
6 75 7 54 19 -23 12 -88 12 -109 -1 -6 -3 -7 0 -4 9 7 18 -12 21 -36 6 -9 -6
-17 -5 -21 2 -4 6 -13 1 -23 -13z"/>
<path d="M368 2473 c6 -2 18 -2 25 0 6 3 1 5 -13 5 -14 0 -19 -2 -12 -5z"/>
<path d="M490 2333 c-14 -2 -117 -17 -230 -34 -289 -42 -260 -33 -260 -86 0
-43 1 -44 28 -39 15 3 110 19 212 36 267 44 463 80 468 85 3 3 -16 5 -42 5
-56 0 -97 17 -75 31 14 9 -51 10 -101 2z"/>
<path d="M2220 2270 c-40 -10 -107 -80 -87 -91 27 -15 160 -32 279 -36 128 -5
231 8 244 29 5 8 1 9 -12 4 -15 -6 -17 -5 -6 5 6 7 12 25 12 40 0 24 -5 27
-42 32 -24 4 -74 11 -113 16 -82 12 -225 12 -275 1z"/>
<path d="M3645 2260 c3 -5 8 -10 11 -10 2 0 4 5 4 10 0 6 -5 10 -11 10 -5 0
-7 -4 -4 -10z"/>
<path d="M493 2213 c9 -2 23 -2 30 0 6 3 -1 5 -18 5 -16 0 -22 -2 -12 -5z"/>
<path d="M280 2179 c0 -5 5 -7 10 -4 6 3 10 8 10 11 0 2 -4 4 -10 4 -5 0 -10
-5 -10 -11z"/>
<path d="M200 2170 c-12 -8 -12 -10 5 -9 11 0 29 4 40 9 18 8 18 9 -5 9 -14 0
-32 -4 -40 -9z"/>
<path d="M95 2150 c-25 -11 1 -11 35 0 20 6 21 8 5 8 -11 0 -29 -3 -40 -8z"/>
<path d="M23 2143 c-13 -2 -23 -8 -23 -12 0 -10 59 -1 66 10 5 9 -4 10 -43 2z"/>
<path d="M1023 2100 c0 -25 2 -35 4 -22 2 12 2 32 0 45 -2 12 -4 2 -4 -23z"/>
<path d="M591 2044 c0 -11 3 -14 6 -6 3 7 2 16 -1 19 -3 4 -6 -2 -5 -13z"/>
<path d="M412 2030 c0 -14 2 -19 5 -12 2 6 2 18 0 25 -3 6 -5 1 -5 -13z"/>
<path d="M342 2020 c0 -14 2 -19 5 -12 2 6 2 18 0 25 -3 6 -5 1 -5 -13z"/>
<path d="M1720 2033 c0 -13 53 -83 62 -83 5 0 -5 20 -23 45 -32 45 -39 51 -39
38z"/>
<path d="M1021 2004 c0 -11 3 -14 6 -6 3 7 2 16 -1 19 -3 4 -6 -2 -5 -13z"/>
<path d="M143 1965 c0 -22 2 -30 4 -17 2 12 2 30 0 40 -3 9 -5 -1 -4 -23z"/>
<path d="M73 1955 c0 -22 2 -30 4 -17 2 12 2 30 0 40 -3 9 -5 -1 -4 -23z"/>
<path d="M1023 1940 c0 -25 2 -35 4 -22 2 12 2 32 0 45 -2 12 -4 2 -4 -23z"/>
<path d="M3 1925 c0 -27 2 -38 4 -22 2 15 2 37 0 50 -2 12 -4 0 -4 -28z"/>
<path d="M2870 1670 c0 -5 5 -10 11 -10 5 0 7 5 4 10 -3 6 -8 10 -11 10 -2 0
-4 -4 -4 -10z"/>
</g>
</svg>
